<?xml version="1.0" encoding="UTF-8" standalone="no"?>
<svg
   xmlns:dc="http://purl.org/dc/elements/1.1/"
   xmlns:cc="http://creativecommons.org/ns#"
   xmlns:rdf="http://www.w3.org/1999/02/22-rdf-syntax-ns#"
   xmlns:svg="http://www.w3.org/2000/svg"
   xmlns="http://www.w3.org/2000/svg"
   xmlns:sodipodi="http://sodipodi.sourceforge.net/DTD/sodipodi-0.dtd"
   xmlns:inkscape="http://www.inkscape.org/namespaces/inkscape"
   width="42.894539mm"
   height="42.894547mm"
   viewBox="0 0 42.894539 42.894547"
   version="1.1"
   id="svg871"
   inkscape:version="1.0.1 (c497b03c, 2020-09-10)"
   sodipodi:docname="defaultprofilepic.svg">
  <defs
     id="defs865" />
  <sodipodi:namedview
     id="base"
     pagecolor="#ffffff"
     bordercolor="#666666"
     borderopacity="1.0"
     inkscape:pageopacity="0.0"
     inkscape:pageshadow="2"
     inkscape:zoom="2.02"
     inkscape:cx="76.072509"
     inkscape:cy="126.7086"
     inkscape:document-units="mm"
     inkscape:current-layer="layer1"
     inkscape:document-rotation="0"
     showgrid="false"
     fit-margin-top="0"
     fit-margin-left="0"
     fit-margin-right="0"
     fit-margin-bottom="0"
     inkscape:window-width="1252"
     inkscape:window-height="855"
     inkscape:window-x="0"
     inkscape:window-y="23"
     inkscape:window-maximized="0" />
  <metadata
     id="metadata868">
    <rdf:RDF>
      <cc:Work
         rdf:about="">
        <dc:format>image/svg+xml</dc:format>
        <dc:type
           rdf:resource="http://purl.org/dc/dcmitype/StillImage" />
        <dc:title></dc:title>
      </cc:Work>
    </rdf:RDF>
  </metadata>
  <g
     inkscape:label="Layer 1"
     inkscape:groupmode="layer"
     id="layer1"
     transform="translate(-92.119957,-83.573185)">
    <g
       id="g1640">
      <path
         id="path1448"
         style="opacity:1;fill:#2b4584;fill-opacity:1;stroke-width:20.2706;stroke-linecap:round;stroke-linejoin:round;paint-order:stroke fill markers"
         d="m 429.0918,315.86719 a 81.060605,81.060605 0 0 0 -80.92188,81.06054 81.060605,81.060605 0 0 0 37.2168,68.17969 44.318181,44.318181 0 0 1 16.24414,-28.2168 40.151516,40.151516 0 0 1 -12.55274,-29.16015 40.151516,40.151516 0 0 1 15.33008,-31.55859 c -0.8448,-9.7617 -3.58663,-14.16632 -5.9375,-16.18555 a 6.5259368,6.5117144 0 0 1 -5.5,3.00976 6.5259368,6.5117144 0 0 1 -6.52539,-6.51171 6.5259368,6.5117144 0 0 1 6.52539,-6.51172 6.5259368,6.5117144 0 0 1 5.64844,3.25195 c 0.94734,0.38493 1.92517,0.90218 2.88672,1.61719 3.74362,2.7837 7.07907,8.09985 8.43555,17.67382 a 40.151516,40.151516 0 0 1 19.28906,-4.9375 40.151516,40.151516 0 0 1 18.2207,4.37305 c 1.40689,-9.21232 4.67775,-14.38192 8.34571,-17.10937 0.67022,-0.49836 1.34708,-0.89559 2.01757,-1.22657 a 6.5259368,6.5117144 0 0 1 5.85743,-3.64257 6.5259368,6.5117144 0 0 1 6.52539,6.51172 6.5259368,6.5117144 0 0 1 -6.52539,6.51171 6.5259368,6.5117144 0 0 1 -5.24415,-2.63671 c -2.18528,2.10235 -4.58905,6.33289 -5.45898,14.98828 a 40.151516,40.151516 0 0 1 16.41406,32.38281 40.151516,40.151516 0 0 1 -12.55078,29.16015 44.318181,44.318181 0 0 1 16.24219,28.2168 81.060605,81.060605 0 0 0 37.2168,-68.17969 81.060605,81.060605 0 0 0 -81.06055,-81.06054 81.060605,81.060605 0 0 0 -0.13867,0 z m -43.70508,149.24023 a 81.060605,81.060605 0 0 0 0.63867,0.40625 81.060612,81.060612 0 0 1 -0.63867,-0.40625 z m 0.63867,0.40625 a 81.060605,81.060605 0 0 0 0.64258,0.40039 81.060612,81.060612 0 0 1 -0.64258,-0.40039 z m 0.64258,0.40039 a 81.060605,81.060605 0 0 0 0.64648,0.39453 81.060612,81.060612 0 0 1 -0.64648,-0.39453 z m 0.64648,0.39453 a 81.060605,81.060605 0 0 0 0.46094,0.27735 81.060612,81.060612 0 0 1 -0.46094,-0.27735 z m 85,-0.71875 a 81.060612,81.060612 0 0 1 -0.64257,0.39844 81.060605,81.060605 0 0 0 0.64257,-0.39844 z m -2.59375,1.56055 a 81.060612,81.060612 0 0 1 -0.6582,0.375 81.060605,81.060605 0 0 0 0.6582,-0.375 z m -2.19726,1.22266 a 81.060612,81.060612 0 0 1 -0.45313,0.24023 81.060605,81.060605 0 0 0 0.45313,-0.24023 z m -76.25782,0.17383 a 81.060605,81.060605 0 0 0 0.66993,0.35156 81.060612,81.060612 0 0 1 -0.66993,-0.35156 z m 72.3711,1.77734 a 81.060612,81.060612 0 0 1 -0.64258,0.29687 81.060605,81.060605 0 0 0 0.64258,-0.29687 z m -67.48047,0.60937 a 81.060605,81.060605 0 0 0 1.25586,0.54883 81.060612,81.060612 0 0 1 -1.25586,-0.54883 z m 1.25586,0.54883 a 81.060605,81.060605 0 0 0 0.64844,0.27344 81.060612,81.060612 0 0 1 -0.64844,-0.27344 z m 61.28906,0.95703 a 81.060612,81.060612 0 0 1 -0.59375,0.23047 81.060605,81.060605 0 0 0 0.59375,-0.23047 z m -0.59375,0.23047 a 81.060612,81.060612 0 0 1 -0.70703,0.26563 81.060605,81.060605 0 0 0 0.70703,-0.26563 z m -1.58203,0.58399 a 81.060612,81.060612 0 0 1 -0.55078,0.19531 81.060605,81.060605 0 0 0 0.55078,-0.19531 z m -2.06641,0.70898 a 81.060612,81.060612 0 0 1 -0.63867,0.20508 81.060605,81.060605 0 0 0 0.63867,-0.20508 z m -2.08593,0.65039 a 81.060612,81.060612 0 0 1 -0.72657,0.21289 81.060605,81.060605 0 0 0 0.72657,-0.21289 z m -44.9668,0.38086 a 81.060605,81.060605 0 0 0 0.51953,0.14453 81.060612,81.060612 0 0 1 -0.51953,-0.14453 z m 42.5625,0.29492 a 81.060612,81.060612 0 0 1 -0.51367,0.13477 81.060605,81.060605 0 0 0 0.51367,-0.13477 z m -38.89453,0.63867 a 81.060605,81.060605 0 0 0 0.73828,0.16602 81.060612,81.060612 0 0 1 -0.73828,-0.16602 z m 0.73828,0.16602 a 81.060605,81.060605 0 0 0 0.61133,0.13281 81.060612,81.060612 0 0 1 -0.61133,-0.13281 z m 2.22461,0.45703 a 81.060605,81.060605 0 0 0 0.62305,0.11524 81.060612,81.060612 0 0 1 -0.62305,-0.11524 z m 30.1582,0.043 a 81.060612,81.060612 0 0 1 -0.65625,0.12109 81.060605,81.060605 0 0 0 0.65625,-0.12109 z m -27.92187,0.35156 a 81.060605,81.060605 0 0 0 0.67968,0.10742 81.060612,81.060612 0 0 1 -0.67968,-0.10742 z m 25.74804,0.0274 a 81.060612,81.060612 0 0 1 -0.72265,0.11132 81.060605,81.060605 0 0 0 0.72265,-0.11132 z m -23.5,0.30468 a 81.060605,81.060605 0 0 0 0.375,0.0488 81.060612,81.060612 0 0 1 -0.375,-0.0488 z m 20.96485,0.0586 a 81.060612,81.060612 0 0 1 -0.4375,0.0547 81.060605,81.060605 0 0 0 0.4375,-0.0547 z m -19.46289,0.12695 a 81.060605,81.060605 0 0 0 0.48242,0.0547 81.060612,81.060612 0 0 1 -0.48242,-0.0547 z m 15.87695,0.25 a 81.060612,81.060612 0 0 1 -0.61914,0.0488 81.060605,81.060605 0 0 0 0.61914,-0.0488 z m -0.61914,0.0488 a 81.060612,81.060612 0 0 1 -0.75586,0.0527 81.060605,81.060605 0 0 0 0.75586,-0.0527 z m -9.97656,0.13086 a 81.060605,81.060605 0 0 0 0.74219,0.0332 81.060612,81.060612 0 0 1 -0.74219,-0.0332 z m 2.26953,0.0781 a 81.060605,81.060605 0 0 0 0.75781,0.0117 81.060612,81.060612 0 0 1 -0.75781,-0.0117 z"
         transform="scale(0.26458333)" />
      <path
         id="path1474"
         style="opacity:1;fill:#ffffff;fill-opacity:1;stroke-width:6.065;stroke-linecap:round;stroke-linejoin:round;stroke-miterlimit:4;stroke-dasharray:none;paint-order:stroke fill markers"
         d="m 103.97349,92.596932 a 1.7266541,1.7228911 0 0 0 -1.72651,1.722892 1.7266541,1.7228911 0 0 0 1.72651,1.72289 1.7266541,1.7228911 0 0 0 1.45521,-0.796332 c 0.622,0.534255 1.34744,1.699644 1.57096,4.282427 a 10.623422,10.623422 0 0 0 -4.05608,8.349881 10.623422,10.623422 0 0 0 3.32125,7.71529 11.725852,11.725852 0 0 0 -4.29793,7.46569 21.447287,21.447287 0 0 0 11.60032,3.40806 21.447287,21.447287 0 0 0 11.60033,-3.40806 11.725852,11.725852 0 0 0 -4.29741,-7.46569 10.623422,10.623422 0 0 0 3.32072,-7.71529 10.623422,10.623422 0 0 0 -4.34288,-8.567956 c 0.23017,-2.290072 0.86616,-3.409402 1.44435,-3.965649 a 1.7266541,1.7228911 0 0 0 1.38752,0.697629 1.7266541,1.7228911 0 0 0 1.72651,-1.72289 1.7266541,1.7228911 0 0 0 -1.72651,-1.722892 1.7266541,1.7228911 0 0 0 -1.54978,0.963763 c -0.1774,0.08757 -0.35649,0.192672 -0.53382,0.32453 -0.97048,0.721638 -1.83589,2.089428 -2.20813,4.526854 a 10.623422,10.623422 0 0 0 -4.8209,-1.157036 10.623422,10.623422 0 0 0 -5.10356,1.30638 c -0.3589,-2.533113 -1.24141,-3.939677 -2.23191,-4.676198 -0.25441,-0.18918 -0.51312,-0.326035 -0.76377,-0.427881 a 1.7266541,1.7228911 0 0 0 -1.49449,-0.860412 z" />
    </g>
  </g>
</svg>
