<?xml version="1.0" encoding="UTF-8" standalone="no"?>
<svg
   xmlns:dc="http://purl.org/dc/elements/1.1/"
   xmlns:cc="http://creativecommons.org/ns#"
   xmlns:rdf="http://www.w3.org/1999/02/22-rdf-syntax-ns#"
   xmlns:svg="http://www.w3.org/2000/svg"
   xmlns="http://www.w3.org/2000/svg"
   xmlns:sodipodi="http://sodipodi.sourceforge.net/DTD/sodipodi-0.dtd"
   xmlns:inkscape="http://www.inkscape.org/namespaces/inkscape"
   width="120.79286mm"
   height="29.902193mm"
   viewBox="0 0 120.79286 29.902193"
   version="1.1"
   id="svg3232"
   inkscape:version="1.0.1 (c497b03c, 2020-09-10)"
   sodipodi:docname="logo.svg">
  <defs
     id="defs3226">
    <rect
       x="36.68087"
       y="131.08902"
       width="135.89961"
       height="70.054451"
       id="rect3811" />
  </defs>
  <sodipodi:namedview
     id="base"
     pagecolor="#ffffff"
     bordercolor="#666666"
     borderopacity="1.0"
     inkscape:pageopacity="0.0"
     inkscape:pageshadow="2"
     inkscape:zoom="0.88"
     inkscape:cx="176.62991"
     inkscape:cy="97.381652"
     inkscape:document-units="mm"
     inkscape:current-layer="layer1"
     inkscape:document-rotation="0"
     showgrid="false"
     inkscape:window-width="1252"
     inkscape:window-height="855"
     inkscape:window-x="31"
     inkscape:window-y="23"
     inkscape:window-maximized="0"
     fit-margin-top="0"
     fit-margin-left="0"
     fit-margin-right="0"
     fit-margin-bottom="0" />
  <metadata
     id="metadata3229">
    <rdf:RDF>
      <cc:Work
         rdf:about="">
        <dc:format>image/svg+xml</dc:format>
        <dc:type
           rdf:resource="http://purl.org/dc/dcmitype/StillImage" />
        <dc:title></dc:title>
      </cc:Work>
    </rdf:RDF>
  </metadata>
  <g
     inkscape:label="Layer 1"
     inkscape:groupmode="layer"
     id="layer1"
     transform="translate(-59.100004,-122.4011)">
    <g
       aria-label="DBUGME"
       transform="matrix(2.6361195,0,0,2.6361195,-36.73665,-220.63756)"
       id="text3809"
       style="font-style:normal;font-weight:normal;font-size:10.5833px;line-height:1.25;font-family:sans-serif;white-space:pre;shape-inside:url(#rect3811);fill:#5680e9;fill-opacity:1;stroke:none">
      <path
         d="m 47.611171,133.29734 q 1.32808,0 2.072219,0.51676 0.744138,0.51677 0.744138,1.54512 0,0.52193 -0.279052,0.93534 -0.273884,0.40825 -0.800982,0.61495 0.676959,0.1447 1.012855,0.62012 0.341063,0.47542 0.341063,1.1007 0,1.08004 -0.713132,1.63814 -0.713133,0.55294 -2.020542,0.55294 h -3.700021 v -0.90434 l 0.800982,-0.15503 v -5.40017 l -0.800982,-0.15503 v -0.9095 h 0.800982 z m -1.033525,4.19611 v 2.17041 h 1.390092 q 0.599444,0 0.914669,-0.25838 0.315226,-0.26355 0.315226,-0.77515 0,-0.55293 -0.268717,-0.84232 -0.268716,-0.29456 -0.847491,-0.29456 z m 0,-1.04386 h 1.085202 q 0.604612,0 0.930172,-0.24804 0.325561,-0.24805 0.325561,-0.72347 0,-0.52193 -0.330728,-0.76998 -0.325561,-0.24804 -0.976682,-0.24804 h -1.033525 z"
         style="font-style:normal;font-variant:normal;font-weight:bold;font-stretch:normal;font-family:'Roboto Slab';-inkscape-font-specification:'Roboto Slab Bold';fill:#8860d0;fill-opacity:1"
         id="path3817" />
      <path
         d="m 54.303248,133.29734 v 0.9095 l -0.806149,0.15503 v 3.9274 q 0,0.74414 0.397907,1.11621 0.403075,0.3669 1.100704,0.3669 0.707965,0 1.11104,-0.3669 0.403075,-0.36691 0.403075,-1.11621 v -3.9274 l -0.800982,-0.15503 v -0.9095 h 3.116079 v 0.9095 l -0.80615,0.15503 v 3.9274 q 0,1.26607 -0.837156,1.95336 -0.831987,0.6873 -2.185906,0.6873 -1.34875,0 -2.180738,-0.6873 -0.82682,-0.68729 -0.82682,-1.95336 v -3.9274 l -0.800983,-0.15503 v -0.9095 h 0.800983 1.508947 z"
         style="font-style:normal;font-variant:normal;font-weight:bold;font-stretch:normal;font-family:'Roboto Slab';-inkscape-font-specification:'Roboto Slab Bold';fill:#8860d0;fill-opacity:1"
         id="path3819" />
      <path
         d="m 65.511831,139.98425 q -0.366901,0.36173 -1.069698,0.65629 -0.702798,0.28939 -1.777664,0.28939 -1.52445,0 -2.480461,-1.01803 -0.956011,-1.02319 -0.956011,-2.65616 v -0.25838 q 0,-1.68981 0.940508,-2.74918 0.945676,-1.05936 2.464958,-1.05936 0.883665,0 1.6123,0.28422 0.733803,0.27905 1.21956,0.75964 v 1.51412 h -1.116208 l -0.211872,-1.00769 q -0.206705,-0.1757 -0.547769,-0.27905 -0.335895,-0.10852 -0.775144,-0.10852 -0.987016,0 -1.534785,0.72863 -0.547768,0.72864 -0.547768,1.90686 v 0.26871 q 0,1.14722 0.537433,1.83451 0.537433,0.68213 1.550288,0.68213 0.454751,0 0.733803,-0.0775 0.284219,-0.0775 0.444416,-0.18086 v -1.27641 l -1.074867,-0.0827 v -1.05936 h 2.588981 z"
         style="font-style:normal;font-variant:normal;font-weight:bold;font-stretch:normal;font-family:'Roboto Slab';-inkscape-font-specification:'Roboto Slab Bold';fill:#8860d0;fill-opacity:1"
         id="path3821" />
      <path
         d="m 73.521651,135.25587 -0.03101,-0.005 -2.015374,5.57071 h -1.012855 l -2.005039,-5.55004 -0.03101,0.005 0.144694,3.30212 v 1.18338 l 0.806149,0.15503 v 0.90434 h -3.116079 v -0.90434 l 0.800983,-0.15503 v -5.40017 l -0.800983,-0.15503 v -0.9095 h 0.800983 1.968865 l 1.91719,5.54486 h 0.03101 l 1.932692,-5.54486 h 2.780183 v 0.9095 l -0.806149,0.15503 v 5.40017 l 0.806149,0.15503 v 0.90434 h -3.116079 v -0.90434 l 0.800983,-0.15503 v -1.18338 z"
         style="font-style:normal;font-variant:normal;font-weight:bold;font-stretch:normal;font-family:'Roboto Slab';-inkscape-font-specification:'Roboto Slab Bold';fill:#5680e9;fill-opacity:1"
         id="path3823" />
      <path
         d="m 81.081889,137.51412 h -2.54764 v 2.14974 h 2.428785 l 0.06718,-0.89917 h 1.147213 v 2.05672 H 76.22432 v -0.90434 l 0.800982,-0.15503 v -5.40017 l -0.800982,-0.15503 v -0.9095 h 0.800982 5.141789 v 2.06188 h -1.157549 l -0.06718,-0.89916 h -2.408114 v 1.89135 h 2.54764 z"
         style="font-style:normal;font-variant:normal;font-weight:bold;font-stretch:normal;font-family:'Roboto Slab';-inkscape-font-specification:'Roboto Slab Bold';fill:#5680e9;fill-opacity:1"
         id="path3825" />
    </g>
    <g
       inkscape:groupmode="layer"
       id="layer5"
       inkscape:label="Layer 2">
      <g
         id="g3949"
         transform="matrix(1.2970453e-4,0.16136811,-0.16136811,1.2970453e-4,100.39219,115.87939)">
        <path
           style="fill:#5668e9;fill-opacity:1;stroke:#000000;stroke-width:0.264583px;stroke-linecap:butt;stroke-linejoin:miter;stroke-opacity:1"
           d="m 167.24395,151.80443 -48.38095,2.26785 -23.434524,30.2381 -4.952651,41.87908 H 212.22785 l -2.65057,-49.4386 z"
           id="path1218" />
        <path
           id="rect2573"
           style="opacity:0.996785;fill:#ffffff;fill-opacity:1;stroke:none;stroke-width:5.965;stroke-linecap:round;stroke-linejoin:round;stroke-miterlimit:4;stroke-dasharray:none;paint-order:stroke fill markers"
           d="m 100.72013,194.36455 c 27.97025,-23.43453 79.83564,-19.1706 104.00877,0 26.28668,20.84675 23.45232,23.50797 14.3631,48.91011 l 0.75595,0.62044 c -29.7805,3.50663 -104.38044,2.47308 -134.246856,0 L 73.505855,232.69133 c -14.109256,-13.06935 6.923156,-21.32611 27.214275,-38.32678 z"
           sodipodi:nodetypes="sscccss" />
        <g
           aria-label="D"
           transform="matrix(0.1508138,-17.927094,17.927094,0.1508138,-761.3109,1094.6011)"
           id="text833"
           style="font-style:normal;font-weight:normal;font-size:10.5833px;line-height:1.25;font-family:sans-serif;white-space:pre;shape-inside:url(#rect835-5);fill:#5680e9;fill-opacity:1;stroke:none">
          <path
             d="m 50.388294,46.809059 q 1.472774,0 2.366774,0.909503 0.899167,0.904334 0.899167,2.340935 v 1.028357 q 0,1.441768 -0.899167,2.346103 -0.894,0.899167 -2.366774,0.899167 h -3.152252 v -0.651121 l 0.842323,-0.144694 v -5.927267 l -0.842323,-0.144694 v -0.656289 h 0.842323 z m -1.291906,0.800983 v 5.927267 h 1.291906 q 1.043861,0 1.643306,-0.687294 0.604612,-0.687294 0.604612,-1.762161 v -1.038693 q 0,-1.064531 -0.604612,-1.751825 -0.599445,-0.687294 -1.643306,-0.687294 z"
             style="font-style:normal;font-variant:normal;font-weight:normal;font-stretch:normal;font-family:'Roboto Slab';-inkscape-font-specification:'Roboto Slab';fill:#5680e9;fill-opacity:1"
             id="path904" />
        </g>
        <path
           d="m 129.82681,239.08625 -2.72098,16.90406 -11.76536,-0.099 0.12704,-17.83861 z"
           style="font-style:normal;font-variant:normal;font-weight:normal;font-stretch:normal;font-size:10.5833px;line-height:1.25;font-family:'Roboto Slab';-inkscape-font-specification:'Roboto Slab';white-space:pre;shape-inside:url(#rect835-5);fill:#5668e9;fill-opacity:1;stroke:none;stroke-width:17.9277"
           id="path904-4"
           sodipodi:nodetypes="ccccc" />
        <path
           d="m 159.94714,239.08625 -2.72099,16.90406 -11.76538,-0.099 0.12704,-17.83861 z"
           style="font-style:normal;font-variant:normal;font-weight:normal;font-stretch:normal;font-size:10.5833px;line-height:1.25;font-family:'Roboto Slab';-inkscape-font-specification:'Roboto Slab';white-space:pre;shape-inside:url(#rect835-5);fill:#5668e9;fill-opacity:1;stroke:none;stroke-width:17.9277"
           id="path904-4-2"
           sodipodi:nodetypes="ccccc" />
        <path
           d="m 190.06745,239.08625 -2.72099,16.90406 -11.76535,-0.099 0.12703,-17.83861 z"
           style="font-style:normal;font-variant:normal;font-weight:normal;font-stretch:normal;font-size:10.5833px;line-height:1.25;font-family:'Roboto Slab';-inkscape-font-specification:'Roboto Slab';white-space:pre;shape-inside:url(#rect835-5);fill:#5668e9;fill-opacity:1;stroke:none;stroke-width:17.9277"
           id="path904-4-2-3"
           sodipodi:nodetypes="ccccc" />
        <path
           id="path1003"
           style="fill:#5680e9;fill-opacity:1;stroke-width:1.88958;stroke-linecap:round;stroke-linejoin:round"
           d="m 66.321939,186.99989 a 26.078184,26.078184 0 0 0 -26.078059,26.0785 26.078184,26.078184 0 0 0 5.145285,15.55262 c 2.390916,0.22113 8.11272,0.38781 11.805408,-2.51359 0,0 -1.373723,6.30293 -6.823686,7.59158 a 26.078184,26.078184 0 0 0 15.951052,5.44745 26.078184,26.078184 0 0 0 26.078502,-26.07806 26.078184,26.078184 0 0 0 -26.078502,-26.0785 z" />
        <path
           style="color:#000000;font-style:normal;font-variant:normal;font-weight:normal;font-stretch:normal;font-size:medium;line-height:normal;font-family:sans-serif;font-variant-ligatures:normal;font-variant-position:normal;font-variant-caps:normal;font-variant-numeric:normal;font-variant-alternates:normal;font-variant-east-asian:normal;font-feature-settings:normal;font-variation-settings:normal;text-indent:0;text-align:start;text-decoration:none;text-decoration-line:none;text-decoration-style:solid;text-decoration-color:#000000;letter-spacing:normal;word-spacing:normal;text-transform:none;writing-mode:lr-tb;direction:ltr;text-orientation:mixed;dominant-baseline:auto;baseline-shift:baseline;text-anchor:start;white-space:normal;shape-padding:0;shape-margin:0;inline-size:0;clip-rule:nonzero;display:inline;overflow:visible;visibility:visible;opacity:1;isolation:auto;mix-blend-mode:normal;color-interpolation:sRGB;color-interpolation-filters:linearRGB;solid-color:#000000;solid-opacity:1;vector-effect:none;fill:#5680e9;fill-opacity:1;fill-rule:nonzero;stroke:none;stroke-width:5.14437;stroke-linecap:round;stroke-linejoin:miter;stroke-miterlimit:4;stroke-dasharray:none;stroke-dashoffset:0;stroke-opacity:1;paint-order:stroke fill markers;color-rendering:auto;image-rendering:auto;shape-rendering:auto;text-rendering:auto;enable-background:accumulate;stop-color:#000000;stop-opacity:1"
           d="m 51.250972,172.04147 a 2.5721922,2.5721922 0 0 0 -2.460951,2.14934 2.5721922,2.5721922 0 0 0 2.113958,2.95954 c 2.183304,0.36388 3.439132,1.42719 4.495744,3.1802 1.056612,1.75302 1.711622,4.22026 2.01121,6.72931 0.599174,5.01808 -0.149914,9.9735 -0.149914,9.9735 a 2.5721922,2.5721922 0 0 0 2.144279,2.93933 2.5721922,2.5721922 0 0 0 2.93933,-2.14428 c 0,0 0.879917,-5.47617 0.175181,-11.37832 -0.352367,-2.95108 -1.082601,-6.0654 -2.715301,-8.77419 -1.632701,-2.7088 -4.370657,-4.98669 -8.054945,-5.60073 a 2.5721922,2.5721922 0 0 0 -0.498591,-0.0337 z"
           id="path1011" />
        <circle
           style="fill:#ffffff;fill-opacity:1;stroke-width:1.88958;stroke-linecap:round;stroke-linejoin:round"
           id="path1005"
           cx="63.71431"
           cy="204.60278"
           r="11.083229" />
        <circle
           style="fill:#84ceeb;fill-opacity:1;stroke-width:1.27825;stroke-linecap:round;stroke-linejoin:round"
           id="path1005-3"
           cx="67.300064"
           cy="201.01703"
           r="7.4974794" />
        <rect
           style="fill:#5680e9;fill-opacity:1;stroke:none;stroke-width:4.80917;stroke-linecap:round;stroke-linejoin:round;stroke-miterlimit:4;stroke-dasharray:none;paint-order:stroke fill markers"
           id="rect1120"
           width="121.75204"
           height="14.580425"
           x="90.475822"
           y="226.18945" />
      </g>
    </g>
  </g>
</svg>
