<?xml version="1.0" encoding="utf-8"?>
<!-- Generator: Adobe Illustrator 24.3.0, SVG Export Plug-In . SVG Version: 6.00 Build 0)  -->
<svg version="1.1" xmlns="http://www.w3.org/2000/svg" xmlns:xlink="http://www.w3.org/1999/xlink" x="0px" y="0px"
	 viewBox="0 0 1440 282" style="enable-background:new 0 0 1440 282;" xml:space="preserve">
<style type="text/css">
	.st0{fill:url(#SVGID_1_);}
	.st1{fill:url(#SVGID_2_);}
	.st2{opacity:0.1;fill:none;stroke:#FFFFFF;stroke-width:5;stroke-miterlimit:10;}
	.st3{fill:none;stroke:#FFFFFF;stroke-width:2;stroke-miterlimit:10;}
	.st4{opacity:0.35;fill:none;stroke:#FFFFFF;stroke-width:5;stroke-miterlimit:10;}
	.st5{opacity:0.7;fill:url(#SVGID_3_);}
	.st6{opacity:0.1;}
	.st7{fill:#FFFFFF;}
	.st8{opacity:0.1;fill:url(#SVGID_4_);}
	.st9{opacity:0.1;fill:url(#SVGID_5_);}
	.st10{opacity:0.3;}
	.st11{clip-path:url(#SVGID_7_);}
	.st12{opacity:0.7;}
	.st13{clip-path:url(#SVGID_9_);}
</style>
<g id="background">
	<radialGradient id="SVGID_1_" cx="719.4803" cy="350.7921" r="602.2591" gradientUnits="userSpaceOnUse">
		<stop  offset="0" style="stop-color:#517592"/>
		<stop  offset="0.1382" style="stop-color:#3E5F7C"/>
		<stop  offset="0.3413" style="stop-color:#284563"/>
		<stop  offset="0.5501" style="stop-color:#183250"/>
		<stop  offset="0.766" style="stop-color:#0F2746"/>
		<stop  offset="1" style="stop-color:#0C2342"/>
	</radialGradient>
	<rect x="-10.87" y="-87.42" class="st0" width="1460.69" height="876.42"/>
</g>
<g id="Layer_1">
	<linearGradient id="SVGID_2_" gradientUnits="userSpaceOnUse" x1="409.8134" y1="350.7921" x2="1449.8268" y2="350.7921">
		<stop  offset="0" style="stop-color:#0E4CF8"/>
		<stop  offset="1" style="stop-color:#84CEEB"/>
	</linearGradient>
	<path class="st1" d="M763.6,125.59c0,44.19,10.17,85.87,19.63,126.74c8.33,35.99,5.28,78.39-23.7,122.91
		c-43.35,66.59-132.58,83.18-138.79,84.85c-114.52,30.71-210.92,109.71-210.92,230.6c0,35.15,7.84,68.47,21.86,98.32h419.46
		c14.02-29.84,21.86-63.16,21.86-98.32c0-1.39-0.17-2.78-0.04-4.15c3.59-38.44,18.49-81.91,63.42-116.77
		c47.25-36.66,94.21-48.22,134.16-41.93c35.93,5.65,72.01,14.69,110.13,14.69c102.58,0,196.51-37.02,269.15-98.42V-87.42H822.06
		C784.93-25.08,763.6,47.76,763.6,125.59z"/>
	<path class="st2" d="M1226.34,788.12c18.19-44.33,54.73-78.46,101.06-88.27c0.83-0.17,1.67-0.24,2.48-0.5
		c22.48-7.23,46.65-22.59,62.21-56.8c16.36-35.97,17.81-68.58,9.43-94.28c-7.53-23.12-17.1-45.92-21.52-71.2
		c-16.75-95.88,12.27-189.64,70.11-253.36"/>
	<path class="st3" d="M-10.87,787.83"/>
	<path class="st4" d="M1321.09-87.71c-27.76,18.58-51.73,39.79-69.68,63.25c-93.98,122.85,6.28,269.24,76.95,263.48
		c40.56-3.3,77.6-57.22,120.59-91.27"/>
	<linearGradient id="SVGID_3_" gradientUnits="userSpaceOnUse" x1="-10.8661" y1="460.6362" x2="947.3484" y2="460.6362">
		<stop  offset="0" style="stop-color:#0E4CF8"/>
		<stop  offset="1" style="stop-color:#8860D0"/>
	</linearGradient>
	<path class="st5" d="M946.85,334.4c-8.23-118.9-111.65-208.64-230.99-200.43c-119.34,8.21-209.41,111.25-201.18,230.16
		c0.09,1.29,0.34,2.57,0.31,3.86c-0.87,35.97-11.98,77.36-51.66,112.66c-41.73,37.13-84.8,50.89-122.48,47.61
		c-33.88-2.95-68.13-9.04-103.7-6.6C139.81,528.34,53.3,570.06-10.87,633.6v154.23h644.19c-2.2-7.31-4.44-14.58-6.66-21.82
		c-10.08-32.93-9.98-72.56,14.2-115.83c36.16-64.7,118.35-85.86,124.04-87.81C869.78,526.47,954.64,446.82,946.85,334.4z"/>
	<g class="st6">
		<path class="st7" d="M373.01,787.83l4.91-10.93c0.85-1.81,1.56-3.68,2.32-5.52l2.25-5.55c1.57-3.67,2.86-7.45,4.26-11.18
			c0.68-1.87,1.4-3.74,2.05-5.62l1.85-5.69c4.96-15.16,8.91-30.63,11.74-46.3c5.68-31.33,6.75-63.45,2.89-94.98
			c-0.56-3.93-1.05-7.87-1.66-11.79l-2.15-11.71c-0.83-3.88-1.76-7.74-2.64-11.61c-0.47-1.93-0.84-3.88-1.38-5.79l-1.63-5.72
			l-1.63-5.72l-0.82-2.86l-0.96-2.82l-3.85-11.25c-1.37-3.72-2.93-7.37-4.38-11.06c-0.76-1.83-1.43-3.7-2.26-5.5l-2.49-5.4
			l-2.49-5.4l-1.25-2.7l-1.37-2.64l-5.49-10.55c-1.94-3.45-3.99-6.85-5.98-10.28l-1.5-2.57l-0.75-1.28l-0.81-1.25l-3.25-4.98
			l-3.25-4.98c-0.55-0.82-1.06-1.67-1.64-2.48l-1.74-2.41l-6.97-9.64c-2.44-3.13-4.93-6.21-7.39-9.32l-1.85-2.33l-0.93-1.16
			l-0.98-1.12l-3.92-4.48l-3.91-4.49c-0.66-0.74-1.29-1.51-1.96-2.24l-2.05-2.16l-8.2-8.63c-2.8-2.81-5.7-5.52-8.54-8.29
			c-1.44-1.37-2.84-2.78-4.31-4.11l-4.46-3.95l-4.46-3.95c-1.49-1.31-2.95-2.65-4.52-3.88l-9.24-7.52
			c-1.52-1.28-3.11-2.46-4.71-3.65l-4.77-3.57l-4.77-3.57c-1.57-1.21-3.25-2.28-4.87-3.43l-9.8-6.78l-10.05-6.41
			c-1.68-1.06-3.34-2.16-5.04-3.18l-5.15-3.01c-3.44-1.99-6.84-4.06-10.32-5.98c-7.02-3.73-13.96-7.63-21.15-11.03l-5.35-2.65
			c-1.78-0.88-3.56-1.78-5.38-2.58l-10.88-4.91c-3.6-1.7-7.33-3.11-11-4.65l-5.52-2.27c-1.84-0.76-3.68-1.52-5.55-2.19
			c-7.47-2.75-14.9-5.65-22.49-8.06c-15.06-5.21-30.47-9.36-45.9-13.34l-11.65-2.71l-5.83-1.36l-5.86-1.18l-11.74-2.35
			c-3.92-0.75-7.86-1.34-11.8-2.02c-15.73-2.71-31.61-4.54-47.5-6.21l11.95,0.92c3.98,0.31,7.98,0.57,11.94,1.05l11.92,1.33
			l2.98,0.33l2.97,0.42l5.94,0.85c3.96,0.59,7.93,1.09,11.87,1.75l11.82,2.07l5.91,1.05l5.88,1.22l11.76,2.45
			c15.57,3.73,31.1,7.71,46.32,12.72c7.67,2.31,15.18,5.12,22.74,7.78c1.9,0.65,3.76,1.39,5.62,2.13l5.59,2.2
			c3.72,1.5,7.49,2.87,11.14,4.52l11.03,4.79c1.85,0.77,3.65,1.66,5.46,2.52l5.43,2.59c7.29,3.35,14.31,7.25,21.43,10.96
			c3.53,1.91,6.97,3.98,10.46,5.96l5.22,3c1.73,1.02,3.41,2.12,5.12,3.18l10.2,6.4l9.96,6.78c1.65,1.15,3.35,2.22,4.95,3.43
			l4.83,3.6l4.83,3.6c1.62,1.19,3.23,2.39,4.77,3.68l9.37,7.59c1.58,1.24,3.07,2.59,4.58,3.91l4.52,3.98l4.52,3.99
			c1.49,1.35,2.91,2.77,4.37,4.15c2.89,2.8,5.83,5.54,8.68,8.38l8.33,8.72l2.08,2.18c0.68,0.74,1.33,1.51,2,2.26l3.97,4.55
			l3.96,4.55l0.99,1.14l0.94,1.18l1.87,2.36c2.49,3.16,5.01,6.29,7.48,9.47l7.05,9.8l1.76,2.45c0.59,0.82,1.11,1.68,1.66,2.52
			l3.29,5.06l3.29,5.06l0.82,1.27l0.76,1.3l1.52,2.61c2.01,3.49,4.08,6.94,6.04,10.45l5.55,10.72l1.39,2.68l1.25,2.75l2.49,5.5
			l2.49,5.5c0.83,1.83,1.5,3.73,2.26,5.6c1.45,3.75,2.99,7.47,4.36,11.26l3.83,11.45l0.95,2.86l0.81,2.91l1.61,5.81l1.61,5.81
			c0.53,1.94,0.9,3.92,1.36,5.88c0.85,3.93,1.8,7.84,2.56,11.79l2.01,11.89c0.56,3.98,1.01,7.98,1.51,11.96
			c3.44,31.97,1.92,64.41-4.3,95.88c-3.22,15.71-7.56,31.17-12.89,46.27l-1.99,5.66c-0.69,1.88-1.46,3.73-2.18,5.59
			c-1.5,3.71-2.86,7.47-4.54,11.11l-2.43,5.48c-0.82,1.82-1.59,3.67-2.49,5.45L373.01,787.83z"/>
	</g>
	<linearGradient id="SVGID_4_" gradientUnits="userSpaceOnUse" x1="-12.3268" y1="569.75" x2="802.2814" y2="569.75">
		<stop  offset="0" style="stop-color:#0E4CF8"/>
		<stop  offset="1" style="stop-color:#02FCA7"/>
	</linearGradient>
	<path class="st8" d="M262.22,350.79c-99.95,0-193.69,26.57-274.54,73.03v364.88h814.61C749.78,538.6,527.94,350.79,262.22,350.79z"
		/>
	
		<linearGradient id="SVGID_5_" gradientUnits="userSpaceOnUse" x1="2822.9539" y1="848.9222" x2="3324.177" y2="848.9222" gradientTransform="matrix(1 0 0 -1 -2835.5728 871.6427)">
		<stop  offset="0" style="stop-color:#0E4CF8"/>
		<stop  offset="1" style="stop-color:#02FCA7"/>
	</linearGradient>
	<path class="st9" d="M156.31,133.44c-61.5,0-119.17-13.44-168.93-36.93V-88H488.6C456.3,38.47,319.8,133.44,156.31,133.44z"/>
	<path class="st2" d="M-10.87,183.1c63.79-21.99,112.9-66.17,127.01-122.17c0.25-1,0.34-2.02,0.71-3
		c10.4-27.18,32.51-56.39,81.73-75.2c51.76-19.78,98.68-21.53,135.67-11.4C367.52-19.56,400.32-8,436.71-2.66
		C574.68,17.59,709.59-17.5,801.28-87.42"/>
	<g class="st10">
		<defs>
			<path id="SVGID_6_" class="st10" d="M528.39,787.83c-0.01-30.3-11.58-60.6-34.69-83.72c-46.26-46.26-121.26-46.26-167.52,0
				c-23.12,23.12-34.68,53.42-34.69,83.72H528.39z"/>
		</defs>
		<clipPath id="SVGID_7_">
			<use xlink:href="#SVGID_6_"  style="overflow:visible;"/>
		</clipPath>
		<g class="st11">
			<g>
				<path class="st3" d="M493.74,700.29c-62.48,62.48-124.96,124.96-187.44,187.44"/>
				<path class="st3" d="M485.26,691.82C422.78,754.3,360.3,816.78,297.83,879.25"/>
				<path class="st3" d="M476.79,683.34c-62.48,62.48-124.96,124.96-187.44,187.44"/>
				<path class="st3" d="M468.31,674.87c-62.48,62.48-124.96,124.96-187.44,187.44"/>
				<path class="st3" d="M459.84,666.39c-62.48,62.48-124.96,124.96-187.44,187.44"/>
				<path class="st3" d="M451.36,657.92c-62.48,62.48-124.96,124.96-187.44,187.44"/>
				<path class="st3" d="M442.89,649.45c-62.48,62.48-124.96,124.96-187.44,187.44"/>
				<path class="st3" d="M434.42,640.97c-62.48,62.48-124.96,124.96-187.44,187.44"/>
				<path class="st3" d="M425.94,632.5c-62.48,62.48-124.96,124.96-187.44,187.44"/>
				<path class="st3" d="M417.47,624.02c-62.48,62.48-124.96,124.96-187.44,187.44"/>
				<path class="st3" d="M408.99,615.55c-62.48,62.48-124.96,124.96-187.44,187.44"/>
			</g>
			<g>
				<path class="st3" d="M588.65,793.02c-62.48,62.48-124.96,124.96-187.44,187.44"/>
				<path class="st3" d="M580.17,784.54c-62.48,62.48-124.96,124.96-187.44,187.44"/>
				<path class="st3" d="M571.7,776.07c-62.48,62.48-124.96,124.96-187.44,187.44"/>
				<path class="st3" d="M563.22,767.59c-62.48,62.48-124.96,124.96-187.44,187.44"/>
				<path class="st3" d="M554.75,759.12c-62.48,62.48-124.96,124.96-187.44,187.44"/>
				<path class="st3" d="M546.27,750.65C483.8,813.12,421.32,875.6,358.84,938.08"/>
				<path class="st3" d="M537.8,742.17c-62.48,62.48-124.96,124.96-187.44,187.44"/>
				<path class="st3" d="M529.32,733.7c-62.48,62.48-124.96,124.96-187.44,187.44"/>
				<path class="st3" d="M520.85,725.22c-62.48,62.48-124.96,124.96-187.44,187.44"/>
				<path class="st3" d="M512.38,716.75c-62.48,62.48-124.96,124.96-187.44,187.44"/>
				<path class="st3" d="M503.9,708.27c-62.48,62.48-124.96,124.96-187.44,187.44"/>
			</g>
		</g>
	</g>
	<g class="st12">
		<defs>
			<path id="SVGID_8_" class="st12" d="M904.11-87.42c0.01,41.71,14.7,83.42,44.06,115.25c58.75,63.68,154,63.68,212.75,0
				c29.36-31.83,44.05-73.54,44.06-115.25H904.11z"/>
		</defs>
		<clipPath id="SVGID_9_">
			<use xlink:href="#SVGID_8_"  style="overflow:visible;"/>
		</clipPath>
		<g class="st13">
			<g>
				<path class="st3" d="M948.12,33.1c79.35-86.01,158.69-172.02,238.04-258.04"/>
				<path class="st3" d="M958.89,44.76c79.35-86.01,158.69-172.02,238.04-258.04"/>
				<path class="st3" d="M969.65,56.43c79.35-86.01,158.69-172.02,238.04-258.04"/>
				<path class="st3" d="M980.41,68.1c79.35-86.01,158.69-172.02,238.04-258.04"/>
				<path class="st3" d="M991.17,79.76c79.35-86.01,158.69-172.02,238.04-258.04"/>
				<path class="st3" d="M1001.94,91.43c79.35-86.01,158.69-172.02,238.04-258.04"/>
				<path class="st3" d="M1012.7,103.09c79.35-86.01,158.69-172.02,238.04-258.04"/>
				<path class="st3" d="M1023.46,114.76c79.35-86.01,158.69-172.02,238.04-258.04"/>
				<path class="st3" d="M1034.22,126.43c79.35-86.01,158.69-172.02,238.04-258.04"/>
				<path class="st3" d="M1044.99,138.09c79.35-86.01,158.69-172.02,238.04-258.04"/>
				<path class="st3" d="M1055.75,149.76c79.35-86.01,158.69-172.02,238.04-258.04"/>
			</g>
			<g>
				<path class="st3" d="M827.59-94.56c79.35-86.01,158.69-172.02,238.04-258.04"/>
				<path class="st3" d="M838.35-82.89c79.35-86.01,158.69-172.02,238.04-258.04"/>
				<path class="st3" d="M849.11-71.22c79.35-86.01,158.69-172.02,238.04-258.04"/>
				<path class="st3" d="M859.88-59.56c79.35-86.01,158.69-172.02,238.04-258.04"/>
				<path class="st3" d="M870.64-47.89c79.35-86.01,158.69-172.02,238.04-258.04"/>
				<path class="st3" d="M881.4-36.22c79.35-86.01,158.69-172.02,238.04-258.04"/>
				<path class="st3" d="M892.16-24.56c79.35-86.01,158.69-172.02,238.04-258.04"/>
				<path class="st3" d="M902.93-12.89c79.35-86.01,158.69-172.02,238.04-258.04"/>
				<path class="st3" d="M913.69-1.22c79.35-86.01,158.69-172.02,238.04-258.04"/>
				<path class="st3" d="M924.45,10.44c79.35-86.01,158.69-172.02,238.04-258.04"/>
				<path class="st3" d="M935.21,22.11c79.35-86.01,158.69-172.02,238.04-258.04"/>
			</g>
		</g>
	</g>
</g>
</svg>
